<svg version="1.1" viewBox="0.0 0.0 960.0 540.0" fill="none" stroke="none" stroke-linecap="square" stroke-miterlimit="10" xmlns:xlink="http://www.w3.org/1999/xlink" xmlns="http://www.w3.org/2000/svg"><clipPath id="g10874ca42c7_0_0.0"><path d="m0 0l960.0 0l0 540.0l-960.0 0l0 -540.0z" clip-rule="nonzero"/></clipPath><g clip-path="url(#g10874ca42c7_0_0.0)"><path fill="#000000" d="m0 0l960.0 0l0 540.0l-960.0 0z" fill-rule="evenodd"/><path fill="#000000" fill-opacity="0.0" d="m195.6063 216.26772l568.78735 0l0 107.464554l-568.78735 0z" fill-rule="evenodd"/><path fill="#ffff00" d="m379.66513 249.27708l0.28125 -0.015625l-3.046875 -17.25l-8.65625 0l-3.09375 17.25l0.28125 0.015625l-1.796875 -17.265625l-11.734375 0l4.984375 31.656265l13.90625 0l2.03125 -11.20314l-0.546875 0l2.078125 11.20314l13.9375 0l4.953125 -31.656265l-11.734375 0l-1.84375 17.265625zm23.899963 9.625015l6.609375 0l1.125 4.765625l11.828125 0l-8.171875 -31.656265l-16.125 0l-8.1875 31.656265l11.84375 0l1.078125 -4.765625zm3.0625 -16.218765l1.390625 6.921875l-2.296875 0l1.421875 -6.90625l-0.515625 -0.015625zm39.474335 -10.671875l-25.1875 0l0 9.34375l6.96875 0l0 22.312515l11.25 0l0 -22.312515l6.96875 0l0 -9.34375zm22.453094 21.09375l0.875 9.76564q-3.8125 1.515625 -8.484375 1.515625q-4.421875 0 -7.390625 -0.984375q-2.9687195 -1.0 -4.7499695 -3.09375q-1.78125 -2.09375 -2.484375 -5.1875153q-0.6875 -3.109375 -0.6875 -7.234375q0 -4.015625 0.65625 -7.09375q0.65625 -3.078125 2.390625 -5.21875q1.734375 -2.15625 4.6405945 -3.21875q2.921875 -1.0625 7.265625 -1.0625q0.953125 0 2.125 0.109375q1.171875 0.09375 2.296875 0.265625q1.140625 0.15625 2.171875 0.390625q1.03125 0.234375 2.3125 0.8125l-1.734375 8.828125q-3.9375 -0.828125 -6.375 -0.828125q-2.40625 0 -3.09375 0.328125q-0.671875 0.3125 -0.671875 1.234375l0 11.890625q0.234375 0.0625 1.125 0.15625q0.890625 0.09375 1.84375 0.09375q3.859375 0 7.96875 -1.46875zm30.578125 10.562515l0 -31.656265l-11.25 0l0 10.59375l-5.546875 0l0 -10.59375l-11.25 0l0 31.656265l11.25 0l0 -10.593765l5.546875 0l0 10.593765l11.25 0zm13.653107 -15.093765l-0.28125 0.0625l3.359375 15.031265l8.609375 0l3.359375 -14.968765l-0.328125 -0.078125l0.09375 15.04689l11.703125 0l-1.890625 -31.656265l-14.0 0l-3.421875 15.65625l0.359375 0l-3.421875 -15.65625l-13.9531555 0l-1.9375 31.656265l11.7031555 0l0.046875 -15.093765zm49.263733 -4.84375l-9.59375 0l0 -2.375l10.1875 0l1.46875 -9.34375l-22.90625 0l0 31.656265l23.015625 0l0 -9.343765l-11.765625 0l0 -1.96875l9.59375 0l0 -8.625zm32.893066 19.937515l-10.3125 0l-7.546875 -10.98439q-0.296875 -0.421875 -0.453125 -1.09375q-0.15625 -0.6875 0.4375 -1.5l0.203125 0l0.625 13.57814l-11.25 0l0 -31.656265l10.296875 0l7.578125 11.0q0.28125 0.421875 0.421875 1.09375q0.15625 0.671875 -0.4375 1.484375l-0.203125 0l-0.625 -13.578125l11.265625 0l0 31.656265zm7.7212524 -13.17189q1.953125 0 3.25 1.28125q1.296875 1.28125 1.296875 3.296875q0 2.0312653 -1.296875 3.3125153q-1.296875 1.28125 -3.25 1.28125q-1.9375 0 -3.265625 -1.3125q-1.3125 -1.328125 -1.3125 -3.2812653q0 -2.03125 1.328125 -3.296875q1.328125 -1.28125 3.25 -1.28125zm0 -14.890625q1.953125 0 3.25 1.296875q1.296875 1.28125 1.296875 3.296875q0 2.03125 -1.296875 3.3125q-1.296875 1.28125 -3.25 1.28125q-1.9375 0 -3.265625 -1.328125q-1.3125 -1.328125 -1.3125 -3.265625q0 -2.015625 1.328125 -3.296875q1.328125 -1.296875 3.25 -1.296875z" fill-rule="nonzero"/><path fill="#ffff00" d="m224.43213 311.66772l-14.265625 0l0 -31.65625l14.265625 0q4.15625 0 7.03125 0.875q2.890625 0.859375 4.671875 2.828125q1.796875 1.953125 2.53125 4.953125q0.75 3.0 0.75 7.125q0 4.140625 -0.75 7.15625q-0.734375 3.015625 -2.53125 4.96875q-1.78125 1.953125 -4.671875 2.859375q-2.875 0.890625 -7.03125 0.890625zm0.15625 -22.3125l-3.171875 0l0 12.96875l3.171875 0q1.796875 0 2.34375 -0.28125q0.546875 -0.296875 0.546875 -1.4375l0 -9.53125q0 -1.140625 -0.546875 -1.421875q-0.546875 -0.296875 -2.34375 -0.296875zm15.084976 6.53125q0 -4.21875 0.734375 -7.34375q0.734375 -3.140625 2.53125 -5.21875q1.8125 -2.078125 4.703125 -3.046875q2.890625 -0.984375 7.03125 -0.984375q4.1718903 0 7.0468903 0.984375q2.875 0.96875 4.671875 3.046875q1.796875 2.078125 2.53125 5.21875q0.734375 3.125 0.734375 7.34375q0 4.0 -0.671875 7.09375q-0.671875 3.078125 -2.421875 5.203125q-1.75 2.125 -4.671875 3.171875q-2.921875 1.03125 -7.2187653 1.03125q-4.3125 0 -7.234375 -1.03125q-2.90625 -1.046875 -4.671875 -3.171875q-1.75 -2.125 -2.421875 -5.203125q-0.671875 -3.09375 -0.671875 -7.09375zm11.984375 -5.0l0 11.640625l3.171875 0q1.7968903 0 2.3437653 -0.296875q0.546875 -0.296875 0.546875 -1.4375l0 -11.640625l-3.2187653 0q-1.703125 0 -2.28125 0.296875q-0.5625 0.296875 -0.5625 1.4375zm52.552475 0.84375l-9.59375 0l0 -2.375l10.1875 0l1.46875 -9.34375l-22.90625 0l0 31.65625l23.015625 0l0 -9.34375l-11.765625 0l0 -1.96875l9.59375 0l0 -8.625zm32.893097 19.9375l-10.3125 0l-7.546875 -10.984375q-0.296875 -0.421875 -0.453125 -1.09375q-0.15625 -0.6875 0.4375 -1.5l0.203125 0l0.625 13.578125l-11.25 0l0 -31.65625l10.296875 0l7.578125 11.0q0.28125 0.421875 0.421875 1.09375q0.15625 0.671875 -0.4375 1.484375l-0.203125 0l-0.625 -13.578125l11.265625 0l0 31.65625zm17.408722 0l-14.265625 0l0 -31.65625l14.265625 0q4.15625 0 7.03125 0.875q2.890625 0.859375 4.671875 2.828125q1.796875 1.953125 2.53125 4.953125q0.75 3.0 0.75 7.125q0 4.140625 -0.75 7.15625q-0.734375 3.015625 -2.53125 4.96875q-1.78125 1.953125 -4.671875 2.859375q-2.875 0.890625 -7.03125 0.890625zm0.15625 -22.3125l-3.171875 0l0 12.96875l3.171875 0q1.796875 0 2.34375 -0.28125q0.546875 -0.296875 0.546875 -1.4375l0 -9.53125q0 -1.140625 -0.546875 -1.421875q-0.546875 -0.296875 -2.34375 -0.296875zm15.209961 21.609375l1.640625 -9.578125q5.15625 1.265625 8.625 1.265625q1.78125 0 3.125 -0.0625q1.359375 -0.0625 1.6875 -0.109375l0 -0.921875l-3.5625 -0.296875q-3.015625 -0.296875 -5.125 -1.015625q-2.09375 -0.734375 -3.421875 -2.046875q-1.3125 -1.328125 -1.859375 -3.140625q-0.546875 -1.8125 -0.546875 -4.171875q0 -3.21875 0.6875 -5.4375q0.703125 -2.234375 2.265625 -3.640625q1.5625 -1.421875 3.921875 -1.96875q2.375 -0.546875 5.671875 -0.546875q6.453125 0 12.453125 1.40625l-1.4375 9.25q-5.234375 -0.84375 -7.859375 -0.84375q-2.625 0 -3.734375 0.140625l0 0.890625l2.703125 0.234375q3.265625 0.34375 5.5 1.125q2.25 0.78125 3.6875 2.109375q1.453125 1.328125 2.046875 3.140625q0.59375 1.8125 0.59375 4.046875q0 3.203125 -0.875 5.4375q-0.859375 2.234375 -2.09375 3.4375q-1.046875 1.015625 -2.53125 1.5625q-1.484375 0.546875 -3.078125 0.78125q-1.578125 0.25 -3.15625 0.3125q-1.5625 0.0625 -2.8125 0.0625q-3.171875 0 -6.109375 -0.328125q-2.921875 -0.328125 -6.40625 -1.09375zm47.867462 0.703125l-8.21875 0l-1.15625 -9.34375l4.9375 0q1.109375 0 1.359375 -0.21875q0.09375 -0.09375 0.09375 -0.390625l0 -12.359375l-3.96875 0l0 -9.34375l15.21875 0l0 22.90625q0 4.25 -2.140625 6.5q-2.125 2.25 -6.125 2.25zm9.981873 -31.65625l11.25 0l0 22.515625l2.578125 0q1.5625 0 1.9375 -0.265625q0.390625 -0.28125 0.390625 -1.46875l0 -20.78125l11.25 0l0 17.671875q0 3.921875 -0.53125 6.703125q-0.53125 2.78125 -2.109375 4.625q-1.5625 1.84375 -4.265625 2.609375q-2.6875 0.765625 -6.796875 0.765625q-4.109375 0 -6.8125 -0.765625q-2.703125 -0.765625 -4.265625 -2.578125q-1.5625 -1.828125 -2.09375 -4.625q-0.53125 -2.8125 -0.53125 -6.734375l0 -17.671875zm28.51059 30.953125l1.640625 -9.578125q5.15625 1.265625 8.625 1.265625q1.78125 0 3.125 -0.0625q1.359375 -0.0625 1.6875 -0.109375l0 -0.921875l-3.5625 -0.296875q-3.015625 -0.296875 -5.125 -1.015625q-2.09375 -0.734375 -3.421875 -2.046875q-1.3125 -1.328125 -1.859375 -3.140625q-0.546875 -1.8125 -0.546875 -4.171875q0 -3.21875 0.6875 -5.4375q0.703125 -2.234375 2.265625 -3.640625q1.5625 -1.421875 3.921875 -1.96875q2.375 -0.546875 5.671875 -0.546875q6.453125 0 12.453125 1.40625l-1.4375 9.25q-5.234375 -0.84375 -7.859375 -0.84375q-2.625 0 -3.734375 0.140625l0 0.890625l2.703125 0.234375q3.265625 0.34375 5.5 1.125q2.25 0.78125 3.6875 2.109375q1.453125 1.328125 2.046875 3.140625q0.59375 1.8125 0.59375 4.046875q0 3.203125 -0.875 5.4375q-0.859375 2.234375 -2.09375 3.4375q-1.046875 1.015625 -2.53125 1.5625q-1.484375 0.546875 -3.078125 0.78125q-1.578125 0.25 -3.15625 0.3125q-1.5625 0.0625 -2.8125 0.0625q-3.171875 0 -6.109375 -0.328125q-2.921875 -0.328125 -6.40625 -1.09375zm52.023743 -30.953125l-25.1875 0l0 9.34375l6.96875 0l0 22.3125l11.25 0l0 -22.3125l6.96875 0l0 -9.34375zm12.234375 31.65625l0 -31.65625l-11.25 0l0 31.65625l11.25 0zm22.556274 -19.9375l-8.15625 0l0 -2.375l8.75 0l1.46875 -9.34375l-21.46875 0l0 31.65625l11.25 0l0 -11.125l8.15625 0l0 -8.8125zm0.35681152 -11.71875l9.03125 22.828125l0 8.828125l11.25 0l0 -8.828125l9.03125 -22.828125l-12.453125 0l-2.40625 10.921875l0.359375 0.015625l-2.359375 -10.9375l-12.453125 0zm52.17682 16.5625l-0.28125 0.0625l3.359375 15.03125l8.609375 0l3.359375 -14.96875l-0.328125 -0.078125l0.09375 15.046875l11.703125 0l-1.890625 -31.65625l-14.0 0l-3.421875 15.65625l0.359375 0l-3.421875 -15.65625l-13.953125 0l-1.9375 31.65625l11.703125 0l0.046875 -15.09375zm49.263733 -4.84375l-9.59375 0l0 -2.375l10.1875 0l1.46875 -9.34375l-22.90625 0l0 31.65625l23.015625 0l0 -9.34375l-11.765625 0l0 -1.96875l9.59375 0l0 -8.625zm14.315002 15.171875l6.609375 0l1.125 4.765625l11.828125 0l-8.171875 -31.65625l-16.125 0l-8.1875 31.65625l11.84375 0l1.078125 -4.765625zm3.0625 -16.21875l1.390625 6.921875l-2.296875 0l1.421875 -6.90625l-0.515625 -0.015625zm44.755554 20.984375l-10.3125 0l-7.546875 -10.984375q-0.296875 -0.421875 -0.453125 -1.09375q-0.15625 -0.6875 0.4375 -1.5l0.203125 0l0.625 13.578125l-11.25 0l0 -31.65625l10.296875 0l7.578125 11.0q0.28125 0.421875 0.421875 1.09375q0.15625 0.671875 -0.4375 1.484375l-0.203125 0l-0.625 -13.578125l11.265625 0l0 31.65625zm1.8150024 -0.703125l1.640625 -9.578125q5.15625 1.265625 8.625 1.265625q1.78125 0 3.125 -0.0625q1.359375 -0.0625 1.6875 -0.109375l0 -0.921875l-3.5625 -0.296875q-3.015625 -0.296875 -5.125 -1.015625q-2.09375 -0.734375 -3.421875 -2.046875q-1.3125 -1.328125 -1.859375 -3.140625q-0.546875 -1.8125 -0.546875 -4.171875q0 -3.21875 0.6875 -5.4375q0.703125 -2.234375 2.265625 -3.640625q1.5625 -1.421875 3.921875 -1.96875q2.375 -0.546875 5.671875 -0.546875q6.453125 0 12.453125 1.40625l-1.4375 9.25q-5.234375 -0.84375 -7.859375 -0.84375q-2.625 0 -3.734375 0.140625l0 0.890625l2.703125 0.234375q3.265625 0.34375 5.5 1.125q2.25 0.78125 3.6875 2.109375q1.453125 1.328125 2.046875 3.140625q0.59375 1.8125 0.59375 4.046875q0 3.203125 -0.875 5.4375q-0.859375 2.234375 -2.09375 3.4375q-1.046875 1.015625 -2.53125 1.5625q-1.484375 0.546875 -3.078125 0.78125q-1.578125 0.25 -3.15625 0.3125q-1.5625 0.0625 -2.8125 0.0625q-3.171875 0 -6.109375 -0.328125q-2.921875 -0.328125 -6.40625 -1.09375zm35.02368 -8.078125q1.953125 0 3.25 1.28125q1.296875 1.28125 1.296875 3.3125q0 2.015625 -1.296875 3.3125q-1.296875 1.28125 -3.25 1.28125q-1.9375 0 -3.265625 -1.328125q-1.3125 -1.328125 -1.3125 -3.265625q0 -2.046875 1.328125 -3.3125q1.328125 -1.28125 3.25 -1.28125zm9.28125 -14.96875q0 1.5 -0.1875 2.734375q-0.1875 1.234375 -0.609375 2.359375q-0.40625 1.109375 -1.0625 2.171875q-0.640625 1.0625 -1.5 2.265625q-1.046875 1.390625 -1.515625 2.296875q-0.453125 0.890625 -0.453125 2.921875l-8.0625 0q0 -2.265625 0.203125 -3.390625q0.203125 -1.140625 0.5625 -2.125q0.359375 -0.984375 0.90625 -1.875q0.5625 -0.890625 1.21875 -1.828125q0.5625 -0.828125 0.9375 -1.46875q0.390625 -0.640625 0.640625 -1.21875q0.25 -0.59375 0.34375 -1.21875q0.109375 -0.640625 0.109375 -1.46875l0 -0.03125q0.03125 0 0 0.03125q-0.015625 -0.03125 0.015625 -0.03125l0 2.9375l-7.921875 0.5l-0.53125 -3.5q0 -3.78125 2.25 -5.875q2.25 -2.09375 6.1875 -2.09375q3.96875 0 6.21875 2.09375q2.25 2.09375 2.25 5.8125z" fill-rule="nonzero"/></g></svg>